<?xml version="1.0" encoding="UTF-8"?>
<!DOCTYPE svg PUBLIC "-//W3C//DTD SVG 1.1//EN" "http://www.w3.org/Graphics/SVG/1.1/DTD/svg11.dtd">
<!-- Creator: CorelDRAW Home & Student X8 -->
<svg xmlns="http://www.w3.org/2000/svg" xml:space="preserve" width="970px" height="310px" version="1.1" shape-rendering="geometricPrecision" text-rendering="geometricPrecision" image-rendering="optimizeQuality" fill-rule="evenodd" clip-rule="evenodd"
viewBox="0 0 970 310"
 xmlns:xlink="http://www.w3.org/1999/xlink">
 <g id="Warstwa_x0020_1">
  <metadata id="CorelCorpID_0Corel-Layer"/>
  <path fill="white" fill-rule="nonzero" d="M97 99l-29 0 -5 39 29 0 5 -39zm-17 129l9 -62 -29 0 -8 62 -28 0 8 -62 -29 0 3 -28 29 0 5 -39 -28 0 3 -28 29 0 8 -62 28 0 -9 62 30 0 8 -62 28 0 -8 62 29 0 -4 28 -29 0 -5 39 29 0 -3 28 -29 0 -9 62 -28 0zm92 0l0 -162 40 0 0 19c3,-5 7,-10 11,-13 4,-3 8,-5 12,-7 4,-1 8,-2 12,-3 4,0 9,0 13,0l6 0 0 43c-4,0 -8,-1 -12,-1 -26,0 -39,13 -39,40l0 84 -43 0zm202 -97c-1,-6 -2,-11 -4,-16 -1,-4 -4,-8 -7,-11 -3,-3 -7,-5 -10,-6 -4,-2 -8,-3 -13,-3 -8,0 -16,4 -22,10 -6,6 -10,15 -11,26l67 0zm-68 27c1,12 4,22 11,29 6,8 15,11 25,11 7,0 14,-1 19,-5 5,-3 9,-7 10,-13l44 0c-5,17 -13,30 -26,39 -12,9 -27,13 -45,13 -54,0 -81,-29 -81,-88 0,-13 2,-24 6,-34 3,-10 8,-19 15,-26 7,-7 15,-13 24,-17 10,-4 21,-5 34,-5 25,0 44,8 56,24 13,16 20,40 20,72l-112 0zm223 -10c-2,3 -5,4 -9,6 -4,1 -10,2 -18,4 -13,2 -21,5 -26,9 -4,4 -7,9 -7,16 0,12 7,18 21,18 6,0 11,0 15,-2 5,-2 9,-5 13,-8 3,-3 6,-7 8,-11 2,-4 3,-9 3,-14l0 -18zm3 80c-1,-4 -2,-9 -2,-15 -5,6 -12,11 -20,14 -9,3 -18,5 -29,5 -19,0 -33,-4 -41,-12 -9,-9 -13,-19 -13,-32 0,-12 1,-21 5,-28 4,-7 9,-13 16,-16 6,-4 14,-7 23,-9 9,-2 19,-4 30,-5 11,-2 18,-4 22,-6 3,-3 5,-7 5,-13 0,-5 -2,-9 -7,-12 -5,-3 -12,-5 -20,-5 -10,0 -17,3 -21,7 -5,4 -7,10 -8,18l-40 0c0,-9 1,-17 4,-24 3,-7 7,-13 12,-18 6,-5 13,-9 22,-11 9,-3 20,-4 33,-4 13,0 24,1 32,4 9,3 16,7 22,12 5,6 9,12 11,20 3,8 4,17 4,27l0 103 -40 0zm135 -32c10,0 19,-4 26,-12 7,-8 10,-19 10,-33 0,-35 -12,-52 -36,-52 -24,0 -37,16 -37,49 0,15 4,26 11,35 7,8 15,13 26,13zm35 10c-3,7 -8,13 -17,17 -8,4 -17,6 -27,6 -14,0 -25,-2 -34,-7 -9,-5 -17,-11 -22,-19 -6,-7 -10,-16 -12,-26 -3,-10 -4,-21 -4,-31 0,-13 2,-24 6,-35 3,-10 8,-19 15,-26 6,-8 13,-13 22,-17 9,-4 18,-6 28,-6 20,0 35,8 45,24l0 -20 43 0 0 163c0,13 -2,24 -6,33 -5,9 -10,17 -17,23 -8,6 -16,11 -26,15 -10,3 -21,4 -32,4 -11,0 -21,-1 -31,-4 -10,-3 -18,-8 -25,-14 -7,-6 -12,-13 -16,-21 -4,-8 -6,-18 -6,-28l40 0c0,10 3,17 9,23 7,5 16,8 26,8 12,0 21,-4 29,-10 8,-6 12,-15 12,-25l0 -27zm165 22l0 -23c-11,18 -27,27 -50,27 -8,0 -16,-1 -22,-4 -7,-3 -13,-7 -18,-12 -4,-6 -8,-12 -11,-19 -3,-7 -4,-16 -4,-25l0 -106 43 0 0 100c0,20 9,30 27,30 11,0 19,-3 25,-10 6,-7 8,-16 8,-27l0 -93 43 0 0 162 -41 0zm58 -162l43 0 0 173c0,10 -2,18 -5,26 -3,8 -8,15 -13,21 -6,6 -13,11 -21,14 -7,3 -16,4 -25,4 -22,0 -38,-6 -49,-18 -11,-12 -16,-28 -16,-49l40 0c0,9 2,16 5,22 4,5 10,8 18,8 8,0 14,-3 18,-8 3,-6 5,-13 5,-22l0 -171zm0 -20l0 -39 43 0 0 39 -43 0z"/>
 </g>
</svg>
