<?xml version="1.0" encoding="UTF-8"?>
<!DOCTYPE svg PUBLIC "-//W3C//DTD SVG 1.1//EN" "http://www.w3.org/Graphics/SVG/1.1/DTD/svg11.dtd">
<!-- Creator: CorelDRAW Home & Student X8 -->
<svg xmlns="http://www.w3.org/2000/svg" xml:space="preserve" width="3925px" height="2925px" version="1.1" style="shape-rendering:geometricPrecision; text-rendering:geometricPrecision; image-rendering:optimizeQuality; fill-rule:evenodd; clip-rule:evenodd"
viewBox="0 0 3925 2925"
 xmlns:xlink="http://www.w3.org/1999/xlink">
 <defs>
  <style type="text/css">
   <![CDATA[
    .str1 {stroke:#1F1B20;stroke-width:49.9996}
    .str2 {stroke:#1F1B20;stroke-width:24.9992}
    .str0 {stroke:#2B2A29;stroke-width:2.36221}
    .fil3 {fill:none}
    .fil1 {fill:black}
    .fil0 {fill:#010101}
    .fil2 {fill:#FBF4F4}
   ]]>
  </style>
 </defs>
 <g id="Warstwa_x0020_2">
  <metadata id="CorelCorpID_0Corel-Layer"/>
  <g id="_747948320">
   <g>
    <path class="fil0" d="M2734 1702c-38,-273 428,-375 449,-33 9,148 -62,228 -206,249 -110,16 -225,-88 -243,-216zm-2315 0c-17,-117 71,-231 205,-247 146,-19 236,81 244,214 9,148 -62,228 -207,249 -110,16 -224,-88 -242,-216zm879 -653l-2 -612 620 10 1 1176c-31,7 -520,-2 -591,-5 -34,-1 -25,-6 -25,-43l-3 -526zm-1153 555c-42,-13 -52,-23 -57,-71 -17,-159 -14,-435 -16,-601 -2,-162 -7,-324 -11,-487 -2,-78 -9,-167 -5,-244 5,-91 15,-130 99,-147 61,-14 405,0 490,3l1435 45c10,115 2,254 25,361 56,257 233,298 462,314 214,15 198,-17 321,-62 37,18 65,45 105,57 148,42 648,118 764,173 40,19 60,35 74,81 19,59 15,225 17,300 3,100 -7,185 -58,253 -47,63 -168,48 -265,50 -80,1 -232,9 -304,-2l-11 -26c-58,-228 -365,-249 -481,-48 -16,27 -22,61 -34,83 -37,1 -720,-3 -734,-10 -16,-8 -6,-90 -6,-112 0,-127 7,-1084 -6,-1099 -11,-10 -673,-22 -685,-11 -13,13 -1,1103 -1,1213l-362 -5c-14,-26 -17,-52 -35,-81 -118,-191 -427,-132 -478,85 -72,0 -179,7 -243,-12zm2667 -955c21,19 28,20 40,43 -48,18 -72,39 -135,47 -123,15 -360,-8 -448,-73 -158,-115 -141,-323 -151,-560 187,4 383,198 493,334l201 209zm408 1017c87,0 174,2 261,1 70,-1 181,3 244,-9 150,-28 163,-224 159,-349 -2,-75 3,-180 -7,-250 -13,-82 -46,-120 -107,-150 -67,-32 -320,-82 -409,-100 -123,-24 -317,-47 -413,-102 -30,-17 -50,-30 -75,-52 -28,-25 -45,-38 -68,-60 -110,-104 -267,-308 -373,-392 -103,-83 -229,-136 -369,-139 -331,-6 -665,-18 -997,-31 -171,-7 -585,-25 -748,-19 -100,4 -316,-56 -301,215 13,229 14,518 18,748 3,162 -2,340 11,499 7,94 8,139 90,164 67,20 168,14 242,14 12,105 20,148 75,213 18,21 52,45 81,62 68,42 155,31 228,1 117,-49 146,-151 142,-281l1791 25c9,163 134,289 266,284 172,-8 262,-117 259,-292z"/>
    <path class="fil0" d="M288 476c171,0 1,0 172,0 -1,-195 0,0 -1,-195 175,2 0,0 175,2 9,187 0,0 7,190l193 -2 0 126 -197 -1 0 0 -1 187 -176 -3c-3,-49 3,0 -3,-177 -167,-1 0,0 -171,-1l2 -126zm-38 160l171 1c0,50 -1,93 -1,180 30,5 216,3 252,3 3,-187 0,0 3,-187l195 3 0 0c-3,-204 0,0 -3,-204 -191,0 0,0 -191,0 -2,-62 0,0 -5,-185 -250,1 0,0 -250,1 2,59 3,135 -1,187 -167,4 0,0 -173,2 -1,200 2,184 3,199l0 0z"/>
   </g>
  </g>
 </g>
 <g id="Warstwa_x0020_4">
  <metadata id="CorelCorpID_1Corel-Layer"/>
  <g id="_747947000">
   <g>
    <path class="fil1" d="M3171 2714l-46 0 3 165 50 -1 -7 -164zm-1359 -38l1 199 772 -1 0 -193 -773 -5zm1661 -406l-654 0 0 420 659 0 0 -19 0 -10 0 -10 -5 -381zm-584 444c-12,42 -79,98 -140,65 -50,-27 -57,-88 -141,-87 -4,50 7,164 -3,202 -20,6 -791,8 -811,2 -5,-12 -9,-232 -2,-239 9,-9 543,-1 628,0 35,0 70,1 106,1 74,0 77,-8 83,19 79,1 94,50 133,82 56,46 126,-9 131,-45l-76 -3c-8,-35 -2,-183 -2,-231 0,-35 -7,-214 5,-229 13,-10 142,-5 171,-5 66,0 498,-3 523,1 9,23 6,287 6,349l2 103c-1,19 3,-15 -1,6l-3 5c-16,9 -260,4 -301,4 -3,15 2,152 6,162 8,9 128,-2 149,6 6,2 8,15 0,18l-8 3c-3,0 -11,0 -14,0 -80,-1 -375,3 -403,-4 -5,-23 7,-21 30,-21l147 1 -4 -165 -211 0z"/>
    <path class="fil1" d="M3016 2574c-11,44 22,72 38,51 5,-7 7,-37 4,-45 -3,-11 -29,-7 -42,-6zm-15 -28c25,-7 110,-3 141,-3 33,1 108,-6 129,9l0 14 -10 8 -177 0c1,22 3,51 -10,67 -11,14 -33,19 -53,11 -51,-23 -30,-100 -20,-106z"/>
    <path class="fil1" d="M2955 2401c-19,-28 -82,-64 -54,-80 15,-9 66,48 76,59 22,-9 50,-55 72,-56l9 6c3,25 -26,42 -56,70 12,24 54,41 53,70l-9 8c-12,3 -56,-45 -64,-54 -34,17 -49,62 -80,52 -7,-21 10,-30 21,-40 16,-15 27,-22 32,-35z"/>
    <path class="fil1" d="M3308 2401c-11,-15 -24,-25 -37,-37 -6,-6 -39,-31 -18,-43 15,-8 35,19 42,26 12,11 24,21 34,33 23,-9 50,-55 73,-56l9 6c3,23 -11,28 -24,39 -12,11 -22,21 -33,31 12,24 54,41 54,70 -18,14 -19,8 -45,-17 -10,-10 -20,-18 -28,-29 -34,17 -49,62 -81,52 -6,-21 10,-30 22,-40l26 -25c8,-9 2,0 6,-10z"/>
    <path class="fil1" d="M2004 2786c2,-9 4,-2 -1,-12 0,-1 -4,-7 -4,-7 -5,-5 -1,-1 -7,-5l-12 11c1,2 6,13 16,15 18,2 0,1 8,-2zm-48 -53c-9,-14 -16,-15 -33,-14 0,12 0,12 6,19 7,8 7,7 17,10 8,-9 5,-4 10,-15zm47 -15c-26,1 -71,55 -68,72 24,2 66,-54 68,-72zm-69 38c-11,-10 -26,-17 -23,-40 21,-23 39,-2 57,6 10,-9 18,-17 38,-16 20,21 6,27 -4,44 8,16 23,32 6,50 -23,3 -23,-6 -37,-15 -10,9 -18,19 -39,18 -22,-22 -6,-27 2,-47z"/>
   </g>
  </g>
 </g>
 <g id="Warstwa_x0020_1">
  <metadata id="CorelCorpID_2Corel-Layer"/>
  <g id="_747944720">
   <path class="fil2 str0" d="M1231 1118c0,0 -188,24 -198,198 -11,175 7,434 20,466 13,33 78,195 342,197 264,2 562,-2 631,-138 68,-137 73,-260 39,-556 -33,-295 -753,-170 -834,-167z"/>
   <g>
    <g>
     <path class="fil1" d="M1312 2554c-38,-42 -21,-138 -19,-202 35,-11 72,-19 111,-25 141,-23 303,-18 438,6 2,58 9,155 -11,204 -15,36 -34,31 -72,21 -89,-25 -172,-64 -274,-50 -62,9 -132,55 -173,46zm-153 -374c0,-38 13,-58 31,-79 22,12 21,14 38,33 14,17 24,24 32,43 -41,80 -96,8 -101,3zm726 -39c12,-27 50,-60 80,-74 13,28 20,69 -4,89 -31,10 -56,0 -76,-15zm-588 -160c70,-4 149,13 301,4 51,-3 101,-8 152,-11 52,-2 91,-14 137,-17 10,15 21,28 32,46 20,33 18,19 28,50 -31,17 -51,41 -72,64l-15 -14c-13,-18 -17,-53 -28,-68 -28,18 -8,90 -4,124 6,50 10,102 11,153 -91,-5 -192,-12 -284,-9 -97,2 -169,17 -258,28 2,-41 28,-221 15,-242 -22,13 -7,30 -28,53 -12,12 -7,6 -17,12l-59 -70c-1,-3 -4,-5 -5,-6 22,-47 61,-62 94,-97zm-260 -422c-4,-135 -5,-286 71,-371 40,-45 82,-50 155,-57 67,-7 159,-7 226,-12 35,-1 235,-1 368,8 157,22 191,66 193,235 -10,11 -7,9 -22,17 -62,33 -88,56 -122,134 -31,-68 9,-170 9,-201 -36,0 -61,11 -110,6 -137,-12 -144,-21 -295,32 4,-6 4,-6 9,-12 4,-4 14,-15 15,-19 2,-5 0,-12 -3,-16 -4,-5 -9,-8 -16,-8 -8,0 -20,2 -28,4 -10,3 -21,6 -32,9 -15,4 -31,8 -45,14 -8,3 -17,7 -26,13 -9,5 -17,13 -26,19 -5,3 -5,1 -5,-4 2,-13 12,-33 18,-46 1,-3 3,-6 4,-9 4,-7 0,-8 -7,-11 -13,-6 -18,-7 -32,-2 -5,2 -9,4 -13,5 -69,30 -86,40 -142,90 -46,37 -77,82 -110,127 -25,38 -16,33 -34,55zm1019 -163c12,218 77,361 -107,505 -95,76 -582,93 -735,39 -28,-13 -48,-20 -76,-49 -67,-85 -71,-119 -90,-240 -14,-94 36,-145 97,-219 36,-44 110,-115 199,-128 -6,20 -26,47 -25,64 5,61 69,-43 183,-52 -13,21 -13,20 -28,43 -11,17 -18,28 -15,50 20,-2 22,-10 42,-23 132,-85 258,-40 382,-42 -10,61 -13,119 -3,181 4,25 6,28 28,33 27,-20 19,-48 58,-96 20,-26 48,-55 90,-66zm-152 551c52,-19 97,-58 122,-91 24,-24 22,-30 42,-60 51,-68 25,-336 12,-461 -15,-147 -41,-207 -179,-232 -151,-28 -640,-41 -767,26 -86,46 -120,155 -124,287 -5,161 7,381 122,497 17,16 35,28 66,38 38,12 61,13 80,28 -45,34 -122,108 -136,169 -11,50 52,123 119,57 17,-17 13,-24 33,-42 -5,93 -39,297 -14,375 32,104 126,-41 306,-9 150,27 250,120 274,-22 19,-113 -9,-269 -14,-382l21 21c5,6 9,10 15,14 32,24 114,44 113,-50 0,-43 -59,-113 -91,-163z"/>
     <path class="fil1" d="M1517 2120c-48,9 -87,-5 -113,8 -7,6 -15,11 -15,22 0,9 9,17 14,19 27,15 66,2 114,10 0,35 -13,109 26,109 42,1 28,-74 28,-112 42,0 77,6 106,-11 6,-5 9,-9 8,-16 0,-5 -1,-9 -7,-15 -28,-15 -69,-11 -107,-11 0,-25 5,-99 -9,-111 -13,-12 -31,-9 -40,4 -10,16 -5,82 -5,104z"/>
     <path class="fil1" d="M1769 1666c-11,-20 -20,-96 31,-98l-13 79c-11,28 -4,13 -18,19zm-27 3c-26,-15 -38,-38 -40,-82 -1,-32 3,-82 18,-110 46,2 76,21 83,61 -9,7 3,1 -12,5 -1,1 -3,1 -4,2 -51,16 -52,80 -45,124zm-79 -204c4,9 0,5 8,11 0,1 2,2 3,3 1,0 2,1 3,2l8 6c1,1 2,2 4,3 -37,60 -12,169 31,200 83,60 98,-46 113,-113 7,19 12,39 32,44 14,-21 -1,-52 -13,-76 -11,-23 -23,-48 -41,-62 -30,-23 -107,-64 -148,-18z"/>
     <path class="fil1" d="M1312 1653c-7,-10 -30,-76 28,-87 0,20 0,37 -4,57 -6,26 -7,25 -24,30zm-28 5c-27,-9 -31,-16 -37,-49 -9,-52 -13,-100 26,-117 15,-6 34,-13 55,-11l10 57c-22,15 -37,17 -48,39 -12,24 -9,53 -6,81zm-117 -30c32,-5 14,-20 46,-70 6,36 4,72 22,99 15,22 50,46 89,28 46,-22 62,-139 31,-200l13 -8c1,0 3,-1 4,-1 10,-4 2,3 16,-6 -10,-54 -132,0 -155,14 -25,15 -80,107 -66,144z"/>
     <path class="fil1" d="M1550 1850c-8,-34 -24,-23 -57,-22 -21,0 -56,-14 -62,11 -5,23 -1,1 47,6 19,2 21,-1 36,-2 14,0 21,5 36,7z"/>
    </g>
    <g>
     <rect class="fil2 str1" x="1779" y="2167" width="435" height="324"/>
     <polygon class="fil3 str2" points="1937,2313 1937,2349 1978,2349 1978,2386 2017,2386 2017,2349 2056,2349 2056,2313 2017,2313 2017,2272 1978,2272 1978,2313 "/>
    </g>
   </g>
  </g>
 </g>
</svg>
