<?xml version="1.0" encoding="UTF-8"?>
<!DOCTYPE svg PUBLIC "-//W3C//DTD SVG 1.1//EN" "http://www.w3.org/Graphics/SVG/1.1/DTD/svg11.dtd">
<!-- Creator: CorelDRAW Home & Student X8 -->
<svg xmlns="http://www.w3.org/2000/svg" xml:space="preserve" width="900px" height="800px" version="1.1" style="shape-rendering:geometricPrecision; text-rendering:geometricPrecision; image-rendering:optimizeQuality; fill-rule:evenodd; clip-rule:evenodd"
viewBox="0 0 900 800"
 xmlns:xlink="http://www.w3.org/1999/xlink">
 <defs>
  <style type="text/css">
   <![CDATA[
    .fil0 {fill:white}
   ]]>
  </style>
 </defs>
 <g id="Warstwa_x0020_2">
  <metadata id="CorelCorpID_0Corel-Layer"/>
  <path class="fil0" d="M141 404l9 -16 10 16 14 1c6,6 5,9 12,12 10,-15 10,-15 13,-33 2,-13 3,-26 5,-39 2,-15 7,-73 13,-81 3,51 6,102 9,153l8 134c1,8 -1,13 5,17 7,-12 16,-156 21,-185l12 20c400,4 534,11 562,-20 5,-7 9,-13 14,-20l12 -22c5,-16 8,-17 14,-41 18,-71 1,-144 -45,-198l-8 -10c-16,-17 -37,-34 -63,-47 -66,-34 -158,-32 -224,8 -5,4 -11,7 -16,11 -3,2 -5,4 -8,6 -13,11 -36,35 -49,47 -4,5 -10,10 -14,14 -2,-1 -42,-42 -50,-50 -23,-19 -44,-35 -74,-46 -12,-4 -49,-14 -60,-13 -17,-3 -47,0 -64,3 -46,10 -80,29 -113,59l-12 14c-1,1 -2,2 -4,4 -9,11 -20,27 -27,42 -40,78 -31,228 25,300 18,23 54,57 74,77l255 260c14,13 34,17 53,12 16,-4 22,-10 32,-20 90,-90 177,-177 267,-267 -1,0 -9,-9 -9,-9 -8,7 -46,47 -52,54 -7,6 -13,12 -19,18 -7,7 -13,13 -19,20 -17,16 -36,35 -53,52 -18,18 -35,35 -53,53l-72 72c-7,7 -12,12 -24,16 -10,2 -13,1 -23,1 -1,-1 -2,-1 -2,-1 -2,-1 -2,0 -2,-1 -13,-3 -21,-13 -28,-20 -9,-9 -17,-17 -25,-25l-136 -141c-6,-7 -12,-13 -19,-19l-56 -56c-3,-3 -6,-6 -9,-10 -5,-6 -33,-34 -37,-37 -4,-3 -7,-7 -11,-10 -7,-7 -20,-23 -26,-31 -20,-24 -32,-66 -38,-99 -7,-46 -7,-63 -2,-122 2,-13 4,-25 9,-38 7,-20 19,-41 31,-57 20,-26 43,-45 72,-60 19,-10 43,-18 67,-21 53,-8 105,6 142,29 14,9 26,18 37,29 4,4 7,7 11,11 5,5 42,43 44,44 13,-13 30,-30 44,-43 18,-19 24,-26 47,-40 69,-45 173,-43 241,6 5,3 9,7 13,10 4,4 8,6 11,10l11 11c20,24 29,37 42,68 4,12 6,22 10,35 0,7 2,14 3,22 0,8 1,16 0,25 0,15 -2,30 -6,45 -6,26 -17,46 -30,67 -8,9 -12,15 -20,20 -8,5 -21,8 -46,10 -26,1 -70,2 -130,2 -59,0 -256,0 -363,-1l-17 -29 -17 158c-4,-5 -7,-71 -7,-77 -2,-27 -3,-53 -5,-80l-7 -121c0,-11 3,-32 -3,-40 -8,10 -15,182 -34,203l-7 -9 -13 -1 -11 -18c-9,3 -11,10 -15,18 -59,0 -88,5 3,5z"/>
 </g>
</svg>
