<?xml version="1.0" encoding="UTF-8"?>
<!DOCTYPE svg PUBLIC "-//W3C//DTD SVG 1.1//EN" "http://www.w3.org/Graphics/SVG/1.1/DTD/svg11.dtd">
<!-- Creator: CorelDRAW Home & Student X8 -->
<svg xmlns="http://www.w3.org/2000/svg" xml:space="preserve" width="900px" height="800px" version="1.1" style="shape-rendering:geometricPrecision; text-rendering:geometricPrecision; image-rendering:optimizeQuality; fill-rule:evenodd; clip-rule:evenodd"
viewBox="0 0 900 800"
 xmlns:xlink="http://www.w3.org/1999/xlink">
 <defs>
  <style type="text/css">
   <![CDATA[
    .fil0 {fill:white}
   ]]>
  </style>
 </defs>
 <g id="Warstwa_x0020_1">
  <metadata id="CorelCorpID_0Corel-Layer"/>
  <g id="_697223352">
   <path class="fil0" d="M299 179c156,-9 289,116 298,281 9,164 -110,304 -266,314 -155,10 -289,-117 -298,-280 -8,-166 110,-305 266,-315zm-1 -17c-166,11 -290,157 -281,333 9,173 151,307 316,297 164,-11 290,-159 281,-334 -10,-173 -151,-307 -316,-296z"/>
   <path class="fil0" d="M416 327c-29,2 -84,50 -66,75 11,16 30,-13 46,-18 28,-8 30,-5 56,5 20,7 30,18 47,26 31,21 22,-15 5,-33 -23,-26 -51,-57 -88,-55z"/>
   <path class="fil0" d="M387 592c9,-20 1,-28 -17,-15 -34,24 -47,42 -90,44 -40,2 -66,-20 -93,-43 -60,-51 -44,-13 -18,15 21,23 56,51 86,55 49,6 106,-9 132,-56z"/>
   <path class="fil0" d="M140 331c-29,8 -46,30 -57,59 -10,26 19,8 26,3 15,-9 28,-13 46,-10 13,3 86,44 57,-11 -12,-23 -46,-49 -72,-41z"/>
  </g>
 </g>
 <g id="Warstwa_x0020_2">
  <metadata id="CorelCorpID_1Corel-Layer"/>
  <path class="fil0" d="M889 209c6,-89 -16,-174 -110,-193 -43,-9 -82,-3 -120,21 -35,23 -43,67 -76,28 -54,-61 -148,-74 -211,-20 -36,30 -53,77 -57,126 0,2 8,3 8,5 0,-2 9,-3 10,-5 5,-74 41,-134 120,-142 42,-4 72,9 104,35 0,0 0,0 0,0 30,23 40,66 76,21 47,-60 142,-78 198,-25 51,48 58,166 21,225 -23,36 -102,114 -135,150 -23,25 -46,50 -69,74 -4,5 -8,10 -12,15 -5,5 -9,9 -13,13 -4,5 -8,8 -13,10 -4,3 -14,7 -17,11 3,0 5,11 7,11 9,0 19,-4 30,-14 43,-39 102,-112 144,-158 57,-63 109,-94 115,-188z"/>
 </g>
</svg>
