<?xml version="1.0" encoding="UTF-8"?>
<!DOCTYPE svg PUBLIC "-//W3C//DTD SVG 1.1//EN" "http://www.w3.org/Graphics/SVG/1.1/DTD/svg11.dtd">
<!-- Creator: CorelDRAW Home & Student X8 -->
<svg xmlns="http://www.w3.org/2000/svg" xml:space="preserve" width="900px" height="800px" version="1.1" style="shape-rendering:geometricPrecision; text-rendering:geometricPrecision; image-rendering:optimizeQuality; fill-rule:evenodd; clip-rule:evenodd"
viewBox="0 0 900 800"
 xmlns:xlink="http://www.w3.org/1999/xlink">
 <defs>
  <style type="text/css">
   <![CDATA[
    .fil0 {fill:white}
   ]]>
  </style>
 </defs>
 <g id="Warstwa_x0020_1">
  <metadata id="CorelCorpID_0Corel-Layer"/>
  <g id="_703098456">
   <g>
    <path class="fil0" d="M593 496c-8,5 1,16 -7,19 -13,4 -11,1 -11,15 -1,7 -14,42 5,38 8,-1 14,-28 16,-36 2,-6 6,-14 6,-20 1,-5 1,-21 -9,-16zm-231 210c3,2 4,6 10,5 3,-1 6,-3 11,-4 8,-1 16,-3 25,-4 17,-3 2,0 23,-1 13,0 4,-8 19,4 15,11 14,2 21,4 10,3 11,6 23,1 4,-1 7,1 12,1 15,2 4,-6 36,-2 -2,4 -37,38 -43,44 -17,16 -28,33 -54,33 -26,0 -38,-18 -54,-34 -8,-7 -39,-37 -43,-44 8,-1 6,0 14,-3zm-214 -202c-9,-8 -20,-20 -29,-29 -32,-30 -57,-56 -71,-101 -10,-32 -17,-64 -18,-98 -1,-19 2,-91 10,-105 2,0 4,2 6,3 2,8 1,12 11,13 12,2 12,-1 21,-2 6,-1 14,0 19,5 10,13 -15,19 -25,44 -6,13 -12,16 -22,26 -7,7 -4,31 -1,40 2,8 6,9 9,16 2,6 3,13 5,18 6,12 1,8 1,19 0,34 38,29 41,31 2,2 2,4 4,6 2,2 4,3 6,5 3,5 4,9 8,13 4,3 8,4 12,8 5,8 2,7 12,9 1,12 -12,26 1,79zm-89 -328c4,-8 10,-13 16,-20 4,-5 1,-8 5,-12 8,-9 15,-7 24,-10 9,-4 33,-12 41,-11 25,2 19,7 63,8 10,0 17,4 24,11 7,7 17,9 21,14 -1,2 -5,5 -7,7 -4,4 -33,14 -40,30 -5,12 0,13 7,17 0,5 -6,7 1,13 8,2 8,-2 13,-6 3,-3 8,-6 11,-8 14,-11 20,-29 29,-14 3,6 5,4 9,7 -5,12 5,20 -13,22 -10,1 -12,12 -8,21 -35,5 -14,3 -39,11 -9,3 -24,16 -26,24 -1,3 -2,7 -4,10 -2,5 -3,2 -6,6 -4,3 -8,11 -11,13 -5,4 -8,11 -7,18 1,3 8,10 0,16 -1,0 -5,-14 -5,-16 -2,-6 -1,-12 -7,-14 -9,-2 -28,-1 -35,6 -7,7 -12,22 -11,31 3,22 21,5 24,5 -3,7 -8,16 0,22 6,1 8,-1 14,-1 0,7 -4,12 -3,19 2,9 10,6 16,7 4,5 6,9 14,3 4,-3 7,-9 14,-4 6,3 7,6 16,4 6,-1 8,-4 16,-3 6,10 0,12 13,20 4,3 8,5 13,3 5,-2 4,-7 4,-12 14,26 12,44 25,51 23,12 40,3 20,37 -7,13 -2,20 -2,33 -1,15 -14,6 -21,16 -7,10 -1,42 -12,62 -5,-2 -24,-24 -29,-29 -10,-10 -22,-19 -31,-30 2,-10 4,-23 -7,-31 -8,-5 -18,-9 -24,-16 -12,-12 -11,-52 -7,-68 2,-7 3,-12 1,-19 -1,-9 -3,-9 -11,-9 -4,-1 -8,-6 -12,-9 -8,-5 -4,-3 -9,-10 -3,-4 -7,-6 -9,-11 -3,-6 -5,-7 -11,-8 -10,-2 -25,1 -29,-12 -2,-6 1,-12 0,-19 0,-5 -6,-19 -9,-31 -4,-15 -8,0 -11,-29 -2,-22 14,-19 23,-37 16,-36 32,-29 31,-47 -2,-15 -6,-17 -18,-23 -11,-6 -23,2 -34,2zm24 -82c5,-7 14,-18 22,-20 31,-7 34,-11 69,-12 25,0 19,-5 29,-11 2,-1 29,2 37,1 10,-3 20,-8 32,1 7,5 26,2 36,4 4,1 7,6 11,9 6,5 8,5 12,7 -1,6 -6,13 -9,19 -6,12 -9,30 -13,44 -1,4 -4,7 -2,11 2,4 7,4 10,1 2,-2 4,-9 12,-16 6,-6 12,-8 20,-9 15,-1 19,-5 23,-6 3,-1 9,1 13,1 17,-1 8,-6 24,9 8,8 8,5 17,7 7,2 9,19 29,18 10,0 26,-6 35,-13 9,-6 22,-10 26,-21 2,5 0,6 5,11 5,4 6,3 10,5 -2,4 -5,5 -8,13 -4,1 -7,1 -10,1 -4,2 -4,3 -6,4 -10,5 -22,-4 -35,0 -15,6 -14,7 -22,18 -4,6 -5,4 -8,12 -2,6 -5,6 -5,14 -1,10 4,5 2,15 -3,4 -8,5 -12,8 -4,4 -4,7 -7,11 -6,4 -15,-6 -9,17 -22,3 -19,2 -18,24 0,16 7,21 23,16 16,-6 9,-13 19,-23 7,-5 9,-2 17,-3 8,-2 6,-1 13,4 0,8 1,5 -2,12 -5,11 12,13 15,1 0,-1 1,-9 1,-10 0,-5 -1,-3 -2,-7 4,5 8,29 19,24 5,-2 4,-7 4,-11 3,5 3,11 10,12 7,1 14,0 21,1l-3 15c-4,7 -32,-5 -36,-4 -3,0 -5,4 -8,6 -19,-2 -19,-15 -31,-19 -7,-3 -13,2 -21,2 -12,1 -28,1 -40,9 -6,5 -4,13 -5,19 -1,13 -16,18 -23,25 -17,19 4,18 2,35 -3,21 3,19 12,35 9,17 14,12 27,22 7,5 9,7 17,4 13,-5 6,-1 15,-10 6,7 1,12 16,11 1,11 -4,24 3,31 7,7 9,19 10,28 2,14 -1,23 1,35 1,6 4,9 4,14 1,6 0,12 1,18 1,5 4,8 5,14 1,4 4,10 5,13 1,3 6,11 7,12 2,2 12,3 15,3 9,-1 16,-10 22,-16 6,-6 8,-15 14,-22 7,-9 10,-18 10,-28 1,-13 13,-10 16,-21 5,-19 -3,-45 9,-66 16,-30 29,-32 34,-41 7,-16 -2,-18 -15,-14 -12,5 -19,-1 -21,-13 7,9 14,5 22,1 11,-6 16,-4 23,-8 6,-4 13,-11 12,-19 -1,-16 -10,-17 -12,-19 10,-5 32,-1 39,9 3,5 4,11 8,17 12,16 9,38 27,50 5,3 13,8 18,2 8,-12 -20,-40 8,-56 17,-9 26,13 30,18 11,10 6,23 18,33 19,15 16,-19 14,-29 6,4 20,18 23,5 2,-10 -6,-19 -6,-33 7,-3 15,-6 19,-14 5,-10 8,-9 9,-22 1,-27 -21,-25 -20,-43 5,3 12,9 18,9 9,0 11,-10 10,-17 -1,-6 -6,-14 -10,-18 -9,-8 -5,-8 -8,-18 -3,-10 -26,-41 -35,-48 -3,-3 -6,-3 -8,-6 -5,-6 -4,-2 -7,-6 -1,-6 -1,-10 2,-16 18,-5 14,6 32,-15 10,-1 24,10 29,18 4,7 10,32 21,18 1,-7 -7,-29 -10,-36 -3,-8 -16,-25 -17,-29l19 -5c30,44 35,98 34,149 -1,45 -13,108 -37,147 -24,38 -58,61 -87,95 -24,29 -63,61 -90,91 -30,31 -60,62 -90,92 -10,10 -14,18 -30,17 -6,-1 -13,-2 -20,0 -8,1 -10,4 -19,1 -10,-3 -6,-3 -16,1 -6,3 -10,-1 -17,-2 -6,0 -10,2 -15,-3 -4,-3 -8,-9 -13,-9 -7,0 -9,6 -17,4 -10,-1 -8,-2 -18,1 -7,1 -12,2 -19,3 -5,2 -11,5 -16,2 -6,-5 -5,-7 -13,-2 -7,4 -13,4 -21,2 -7,-2 -59,-60 -68,-68 -10,-10 0,-17 2,-31 3,-13 4,-27 5,-40 7,-4 18,-1 22,-14 4,-14 -1,-16 0,-30 1,-12 25,-35 6,-49 -7,-4 -17,-5 -25,-10 -11,-6 -8,-10 -12,-22 -3,-8 -7,-17 -11,-24 -2,-5 -4,-6 -8,-10 -4,-5 -4,-7 -11,-5 -6,4 -4,10 -5,17 -8,-4 2,-27 -30,-18 -14,4 -8,-4 -19,-5 -8,-1 -14,1 -19,6l-10 -3c0,0 0,-1 0,-1l-2 0c0,-1 -1,0 -1,-1 6,-22 5,-22 -14,-23 0,-7 9,-17 3,-21 -7,-5 -17,-1 -23,2 -1,-6 2,-13 6,-18 4,-4 16,-4 21,-3 0,7 -1,5 3,11 3,5 0,6 2,11 2,4 10,11 16,9 6,-2 10,-10 11,-15 4,-16 -3,-11 -2,-20 0,-1 9,-11 11,-13 5,-6 7,-3 12,-12 3,-6 3,-12 7,-16 12,-14 16,-10 30,-17 12,-7 24,-3 35,-13 6,-6 4,-9 -1,-14 15,-3 18,-10 19,-25 1,-8 12,-28 -9,-24 -6,-5 -2,-6 -13,-10 -19,-6 -26,18 -39,26l-8 -6c5,-10 22,-15 31,-20 4,-2 6,-5 8,-6 3,-2 4,0 8,-4 6,-5 3,-12 -1,-18 -5,-4 -10,-8 -16,-10 -6,-3 -9,-8 -14,-11 -16,-11 -23,-9 -42,-10 -15,0 -28,-6 -44,-7 -14,-1 -68,14 -78,25 -7,9 0,20 -26,24 1,-6 7,-19 11,-25 8,-2 5,3 12,-6 2,-3 6,-6 9,-9 12,-13 10,-16 7,-26zm537 232c-2,-2 -2,-3 -5,-4 -2,-2 -3,-1 -6,-3 -2,-1 -7,-5 -9,-7 -18,-13 -28,-5 -23,15 1,5 4,6 7,9 10,9 10,10 24,10 3,4 9,7 10,10 1,4 -3,9 -7,11 -4,2 -8,1 -14,4 -4,2 -9,4 -13,6 -3,-4 -9,-16 -14,-22 -6,-8 -6,-15 -11,-23 -4,-7 -13,-14 -21,-14 -13,1 -15,8 -9,19 6,10 3,13 11,23 3,4 6,7 8,10 3,4 4,7 7,11 3,4 5,5 7,10 7,16 12,22 31,19 -1,4 -5,5 -9,8 -6,6 -17,24 -21,31 -10,22 -5,41 -7,61 -1,10 -12,9 -16,20 -2,6 0,10 -2,15 -2,9 -8,15 -12,22 -2,4 -4,9 -6,12 -5,6 -12,15 -20,14 -9,-3 -11,-22 -14,-28 -5,-11 -1,-14 -4,-24 0,-3 -2,-6 -3,-10 -3,-13 4,-32 -7,-62 -2,-3 -4,-6 -5,-8 -5,-16 4,-39 -17,-36 -4,-5 -7,-15 -17,-12 -5,1 -4,5 -7,8 -2,1 -8,3 -11,3 -3,-2 -6,-4 -9,-6 -4,-3 -6,-3 -10,-5 -7,-3 -8,-12 -12,-17 -9,-13 -7,-4 -6,-22 1,-17 -5,-13 -7,-23 3,-6 14,-11 19,-17 11,-12 7,-14 10,-28 7,-5 17,-5 27,-7 5,0 10,0 15,-1 17,-4 7,8 32,15 13,4 13,8 23,-2 10,1 12,4 26,5 19,1 23,-25 15,-37 -4,-7 -17,-4 -24,-5 -5,-10 -11,-23 -25,-17 -5,-6 -11,-10 -18,-13 -10,-5 -15,-6 -19,5 -16,3 -14,-4 -28,10 -6,7 -4,6 -7,13 -2,3 -9,6 -13,4l0 -16c13,-4 29,3 18,-18 3,-3 5,-2 7,-5 2,-3 2,-5 4,-7 5,-5 12,-6 15,-10 3,-4 0,-5 4,-8 3,-1 5,-1 6,-5 1,-8 -4,-10 -9,-13 1,-3 8,-15 10,-17 7,-8 2,-7 14,-12 9,-4 12,-1 21,-1 3,1 10,1 13,1 7,-1 5,-3 9,-5 8,-3 12,3 18,-9 6,-13 7,-5 16,-10 8,-4 4,-12 -3,-15 -5,-2 -16,-3 -18,-7 1,-8 10,-3 12,-13 0,-2 1,-20 0,-21 -4,-8 -11,0 -14,3 -5,4 -8,6 -13,11 -7,7 -6,6 -10,15 -3,6 -8,7 -13,10 -14,8 -15,11 -32,15 -18,5 -16,-14 -31,-16 -12,-2 -7,-1 -16,-9 -3,-3 -9,-10 -12,-10 -8,-2 -13,4 -22,1 -16,-4 -8,-1 -17,4 -11,5 -13,-3 -36,11 1,-11 7,-24 12,-33 5,-9 19,-23 7,-27 -8,-2 -10,3 -18,-4 -6,-5 -1,-7 -12,-10 -12,-4 -27,0 -38,-6 -13,-7 -25,-5 -37,-2 -12,4 -33,-3 -41,1 -13,7 1,11 -34,11 -15,-1 -26,5 -38,5 6,-3 13,-8 19,-11 21,-11 44,-20 68,-23 38,-5 71,-3 107,9 29,10 54,26 77,46 16,14 46,50 60,60l73 -71c62,-48 151,-61 224,-31 31,13 63,33 80,62 -11,3 -26,-1 -25,15 1,12 10,16 14,26 -11,-4 -15,-11 -29,-7 -15,4 -1,11 -23,13 -22,1 -22,35 -9,45 10,7 12,4 20,16 7,10 19,22 21,33 1,5 1,9 4,14 4,8 12,9 14,20 -8,-4 -9,-9 -14,-12 -9,-4 -13,2 -14,10 -3,14 4,26 15,35 13,11 2,23 -1,29 -10,18 -29,1 -19,40 -5,-1 -18,-15 -23,-4 -3,9 8,19 4,28 -2,-6 -3,-12 -5,-19 -4,-8 -7,-6 -11,-12 -5,-11 -15,-18 -27,-18 -10,-1 -10,1 -18,6 -6,4 -6,6 -10,12 -8,12 -3,25 -1,38 -8,-4 -10,-18 -13,-26 -7,-20 -8,-16 -13,-26 -6,-15 -4,-14 -18,-21 -14,-8 -17,-6 -33,-5zm266 -49c11,-129 -37,-244 -175,-267 -61,-11 -127,2 -178,38 -14,10 -46,40 -57,53 -25,28 -24,12 -56,-19 -43,-42 -86,-68 -148,-75 -62,-6 -120,12 -169,50 -97,75 -104,229 -62,335 22,52 60,84 100,123 37,36 72,75 109,111 38,37 74,76 111,113 33,33 54,71 102,57 15,-4 23,-12 33,-23 36,-37 74,-74 111,-111 55,-53 110,-114 164,-168 19,-18 38,-36 55,-55 40,-45 55,-104 60,-162z"/>
   </g>
  </g>
 </g>
</svg>
