<?xml version="1.0" encoding="UTF-8"?>
<!DOCTYPE svg PUBLIC "-//W3C//DTD SVG 1.1//EN" "http://www.w3.org/Graphics/SVG/1.1/DTD/svg11.dtd">
<!-- Creator: CorelDRAW Home & Student X8 -->
<svg xmlns="http://www.w3.org/2000/svg" xml:space="preserve" width="5800px" height="880px" version="1.1" style="shape-rendering:geometricPrecision; text-rendering:geometricPrecision; image-rendering:optimizeQuality; fill-rule:evenodd; clip-rule:evenodd"
viewBox="0 0 5800 880"
 xmlns:xlink="http://www.w3.org/1999/xlink">
 <defs>
  <style type="text/css">
   <![CDATA[
    .fil0 {fill:white}
   ]]>
  </style>
 </defs>
 <g id="Warstwa_x0020_1">
  <metadata id="CorelCorpID_0Corel-Layer"/>
  <path class="fil0" d="M3112 616c0,0 12,-11 14,-14 11,-11 44,-44 59,-60 42,-42 110,-112 112,-114 8,-6 13,-12 18,-16l16 -18c5,-7 9,-13 14,-21l11 -21c5,-17 8,-18 14,-41 18,-71 1,-144 -44,-199l-8 -9c-16,-18 -36,-34 -62,-47 -65,-34 -149,-33 -214,8 -5,3 -10,7 -16,11 -3,2 -5,3 -7,6 -13,11 -36,34 -49,47 -4,5 -9,9 -13,14 -2,-1 -42,-42 -49,-50 -23,-20 -44,-35 -73,-46 -12,-4 -48,-15 -59,-14 -17,-3 -46,0 -63,4 -45,10 -78,28 -110,59l-13 13c-1,2 -2,3 -4,5 -8,11 -18,26 -26,41 -38,79 -28,171 23,239 4,8 9,12 14,18 3,3 6,6 9,9 3,2 6,5 9,8 2,1 4,3 5,4 6,5 92,94 135,138 46,46 58,44 -5,44 -1,0 -2740,-4 -2742,2 34,7 2752,8 2778,8 45,0 43,5 -12,-52 -20,-19 -43,-43 -46,-47l-56 -56c-3,-3 -6,-6 -9,-9 -5,-6 -32,-35 -36,-38 -4,-3 -7,-5 -11,-9 -9,-8 -10,-10 -16,-16l-2 -3c-2,-2 -2,-2 -4,-4 -12,-16 -24,-35 -31,-55 -2,-4 -3,-8 -5,-12 -1,-3 -2,-10 -3,-12 -2,-7 -4,-14 -5,-21 -3,-23 -3,-45 0,-67 0,-2 0,-4 1,-5 0,-6 7,-29 9,-35 7,-20 19,-41 30,-57 20,-25 43,-44 71,-59 19,-10 42,-19 66,-22 52,-7 103,6 139,30 14,8 26,18 37,29 4,4 7,7 10,11 5,5 42,43 44,44 12,-14 29,-30 43,-44 18,-18 23,-25 46,-40 68,-44 164,-43 231,7 5,3 9,6 13,10 3,3 7,6 11,10l10 11c20,24 29,36 41,68 4,11 6,22 10,34 0,7 2,15 3,22 0,9 1,17 0,25 0,16 -2,31 -6,45 -6,27 -16,47 -29,68 -6,9 -10,12 -14,18 -7,9 -20,22 -27,28 -6,4 -78,78 -85,85 -6,7 -12,13 -18,19 -6,6 -12,12 -19,19 -14,14 -48,49 -69,70 -11,12 -10,9 11,9l14 0 200 0 46 -68 27 53 25 2c6,8 11,20 23,31 4,-11 11,-59 15,-69 2,-15 17,-108 20,-133 4,-28 16,-131 23,-157 6,94 11,197 16,291l16 247c1,15 -2,25 8,32 13,-22 28,-237 39,-290l35 30c74,1 2122,11 2192,2 -75,-16 -2115,-2 -2187,-13l-47 -41 -30 231c-7,-8 -12,-132 -13,-142 -3,-50 -5,-99 -9,-148l-12 -225c-1,-12 -1,-59 -5,-73 -7,29 -58,368 -67,431l-11 -13 -24 -1 -34 -61c-7,10 -47,71 -52,76 -2,2 -192,1 -205,1l0 0z"/>
 </g>
</svg>
