<?xml version="1.0" encoding="UTF-8"?>
<!DOCTYPE svg PUBLIC "-//W3C//DTD SVG 1.1//EN" "http://www.w3.org/Graphics/SVG/1.1/DTD/svg11.dtd">
<!-- Creator: CorelDRAW Home & Student X8 -->
<?xml-stylesheet href="icon-satisfaction.css" type="text/css"?>
<svg xmlns="http://www.w3.org/2000/svg" xml:space="preserve" width="1000px" height="1000px" version="1.1" style="shape-rendering:geometricPrecision; text-rendering:geometricPrecision; image-rendering:optimizeQuality; fill-rule:evenodd; clip-rule:evenodd"
viewBox="0 0 1000 1000"
 xmlns:xlink="http://www.w3.org/1999/xlink">
 <g id="Warstwa_x0020_1">
  <metadata id="CorelCorpID_0Corel-Layer"/>
  <g id="_697220472">
   <path class="iconSatisfaction" d="M387 301c132,-7 243,93 251,224 7,131 -93,243 -224,251 -130,7 -244,-93 -251,-224 -7,-132 92,-243 224,-251zm-1 -14c-139,9 -244,126 -237,266 8,138 128,245 266,237 139,-9 245,-127 237,-266 -8,-139 -127,-245 -266,-237z"/>
   <path class="iconSatisfaction" d="M485 419c-24,1 -70,40 -55,60 9,13 25,-11 38,-14 24,-7 26,-5 48,3 17,6 25,15 39,22 26,16 19,-13 5,-27 -20,-21 -43,-46 -75,-44z"/>
   <path class="iconSatisfaction" d="M461 630c7,-16 1,-22 -15,-12 -28,20 -39,34 -75,35 -34,2 -56,-15 -79,-34 -49,-41 -36,-10 -14,12 17,18 47,41 72,44 41,5 89,-8 111,-45z"/>
   <path class="iconSatisfaction" d="M253 422c-25,6 -39,24 -48,47 -9,21 16,7 22,3 12,-8 23,-11 39,-8 10,2 73,35 48,-9 -10,-19 -39,-39 -61,-33z"/>
  </g>
 </g>
 <g id="Warstwa_x0020_2">
  <metadata id="CorelCorpID_1Corel-Layer"/>
  <path class="fil0" d="M884 325c5,-71 -14,-139 -92,-154 -37,-7 -70,-3 -102,17 -30,18 -36,53 -64,22 -45,-49 -125,-59 -178,-16 -29,24 -45,61 -48,100 0,2 7,3 7,5 0,-2 8,-3 8,-4 4,-60 35,-107 102,-113 35,-4 61,6 88,27 0,0 0,0 0,0 25,19 33,53 63,17 40,-48 119,-62 167,-20 43,38 49,133 17,180 -19,28 -85,90 -113,119 -19,20 -38,40 -58,60 -3,3 -7,7 -11,11 -3,4 -7,8 -10,11 -4,3 -7,6 -11,8 -4,2 -12,5 -14,8 2,0 4,9 6,9 7,0 16,-3 25,-11 36,-31 86,-89 121,-126 48,-50 91,-75 97,-150z"/>
 </g>
</svg>
