<?xml version="1.0" encoding="UTF-8"?>
<!DOCTYPE svg PUBLIC "-//W3C//DTD SVG 1.1//EN" "http://www.w3.org/Graphics/SVG/1.1/DTD/svg11.dtd">
<!-- Creator: CorelDRAW Home & Student X8 -->
<svg xmlns="http://www.w3.org/2000/svg" xml:space="preserve" width="900px" height="800px" version="1.1" style="shape-rendering:geometricPrecision; text-rendering:geometricPrecision; image-rendering:optimizeQuality; fill-rule:evenodd; clip-rule:evenodd"
viewBox="0 0 900 800"
 xmlns:xlink="http://www.w3.org/1999/xlink">
 <defs>
  <style type="text/css">
   <![CDATA[
    .fil0 {fill:white}
   ]]>
  </style>
 </defs>
 <g id="Warstwa_x0020_1">
  <metadata id="CorelCorpID_0Corel-Layer"/>
  <g id="_697230000">
   <path class="fil0" d="M364 725c-24,-24 -44,-50 -68,-74 -16,-17 -32,-35 -48,-52 -19,-19 -18,-27 -49,-1 -46,37 -39,52 -30,-51 2,-16 4,-57 11,-69 10,-14 31,-9 46,-7 31,4 60,8 91,11 68,6 -86,30 -10,101 32,31 64,62 97,92 33,32 56,5 74,-13 35,-34 74,-68 111,-102 20,-19 40,-37 60,-57 13,-13 15,-9 28,4 4,4 27,23 26,28 -1,9 -106,105 -120,119 -22,22 -45,42 -67,64 -81,81 -81,78 -152,7zm-19 -4c20,23 51,64 81,71 34,7 61,-27 84,-48 62,-58 126,-117 185,-178 4,-4 29,-28 29,-32 0,-3 -31,-31 -35,-34 -6,-6 -21,-23 -29,-22 -8,1 -25,19 -32,25 -43,40 -86,82 -129,122 -14,13 -37,40 -52,47 -24,11 -42,-15 -58,-30 -25,-26 -53,-49 -79,-74 -22,-22 -15,-26 7,-46 61,-58 69,-45 -5,-54 -22,-3 -43,-5 -65,-9 -19,-3 -53,-9 -70,0 -8,6 -12,13 -15,23 -3,18 -4,46 -6,65 -2,20 -6,40 -6,59 0,62 -7,57 44,16 6,-5 26,-22 32,-21 7,1 23,21 29,27 29,32 60,62 90,93z"/>
   <path class="fil0" d="M837 384c-13,34 -5,36 16,63 16,20 24,26 -16,17 -13,-3 -17,-3 -31,-5 -59,-9 -47,0 -68,-76 -14,-50 -15,-48 9,-32 10,7 -1,1 20,13 28,12 37,-38 41,-56 20,-109 -52,-253 -183,-218 -24,6 -50,20 -70,35 -8,6 -15,12 -23,19 -19,15 -14,18 -37,-9 -27,-29 -24,-20 19,-49 83,-55 178,-81 265,-13 65,50 90,134 82,215 -4,32 -13,66 -24,96zm-80 -41c-23,-17 -49,-41 -41,4 5,26 10,47 19,73 14,41 5,44 53,51 23,3 52,8 75,11 44,5 15,-22 -8,-55 -16,-22 -12,-15 -4,-42 21,-65 36,-148 12,-214 -48,-131 -177,-184 -303,-123 -22,11 -42,23 -62,34 -9,5 -35,17 -34,28 0,10 26,36 33,44 6,7 18,24 27,18 12,-10 21,-24 35,-35 76,-61 164,-58 214,32 29,53 33,105 14,162l-4 10c-6,16 -15,10 -26,2z"/>
   <path class="fil0" d="M305 165c29,-37 40,-43 -10,-63 -85,-36 -186,14 -197,111 -6,48 12,106 31,150 9,21 5,26 -14,38 -10,7 -29,19 -39,6 -49,-90 -54,-218 12,-302 48,-62 126,-84 209,-55 64,22 86,-2 97,-14 16,-17 20,1 21,16 2,20 3,40 6,60 5,39 2,38 -34,46 -23,5 -44,11 -66,17 -10,3 -30,9 -18,-8l2 -2zm-35 34c11,3 55,-12 70,-16 24,-6 49,-12 73,-18 14,-4 26,-7 25,-23 -1,-11 -3,-23 -4,-35 -3,-23 -4,-46 -6,-69 -1,-11 -4,-45 -22,-32 -32,26 -28,46 -80,35 -60,-13 -99,-28 -163,-6 -84,30 -124,101 -135,186 -7,51 -1,95 15,143 7,18 16,43 26,59 4,5 9,10 15,11l2 -1c9,-2 51,-30 57,-37 14,-16 -2,-37 -9,-54 -21,-52 -38,-133 -3,-182 36,-52 108,-72 164,-42 28,16 3,35 -11,52l-4 4c-2,4 -16,20 -10,25z"/>
  </g>
 </g>
</svg>
