<?xml version="1.0" encoding="UTF-8"?>
<!DOCTYPE svg PUBLIC "-//W3C//DTD SVG 1.1//EN" "http://www.w3.org/Graphics/SVG/1.1/DTD/svg11.dtd">
<!-- Creator: CorelDRAW Home & Student X8 -->
<?xml-stylesheet href="15512-pulse-5040ba32-e0e6-4df2-9d7b-a1b513c1b377.css" type="text/css"?>
<svg xmlns="http://www.w3.org/2000/svg" xml:space="preserve" width="3278px" height="900px" version="1.1" style="shape-rendering:geometricPrecision; text-rendering:geometricPrecision; image-rendering:optimizeQuality; fill-rule:evenodd; clip-rule:evenodd"
viewBox="0 0 3278 900"
 xmlns:xlink="http://www.w3.org/1999/xlink">
 <g id="Warstwa_x0020_1">
  <metadata id="CorelCorpID_0Corel-Layer"/>
  <path class="fil0" d="M1151 644c0,0 12,-11 14,-14 12,-11 45,-44 61,-60 42,-42 112,-112 114,-114 8,-6 13,-12 18,-16l16 -18c5,-7 9,-13 14,-21l12 -21c5,-17 8,-18 14,-41 18,-71 1,-144 -45,-199l-8 -9c-16,-18 -37,-34 -63,-47 -66,-34 -152,-33 -218,8 -5,3 -10,7 -16,11 -3,2 -5,3 -8,6 -13,11 -36,34 -49,47 -4,5 -10,9 -14,14 -2,-1 -42,-42 -50,-50 -23,-20 -44,-35 -74,-46 -12,-4 -49,-15 -60,-14 -17,-3 -47,0 -64,4 -46,10 -80,28 -112,59l-13 13c-1,2 -2,3 -4,5 -9,11 -19,26 -27,41 -39,79 -29,171 23,239 5,8 10,12 15,18 3,3 6,6 9,9 3,2 6,5 9,8 2,1 4,3 5,4 6,5 94,94 138,138 46,46 59,44 -5,44 -2,0 -2791,-4 -2793,2 35,7 2803,8 2829,8 46,0 44,5 -12,-52 -20,-19 -44,-43 -47,-47l-57 -56c-3,-3 -6,-6 -9,-9 -5,-6 -33,-35 -37,-38 -4,-3 -7,-5 -11,-9 -9,-8 -10,-10 -16,-16l-2 -3c-2,-2 -2,-2 -4,-4 -13,-16 -25,-35 -32,-55 -2,-4 -3,-8 -5,-12 -1,-3 -2,-10 -3,-12 -2,-7 -4,-14 -5,-21 -3,-23 -3,-45 0,-67 0,-2 0,-4 1,-5 0,-6 7,-29 9,-35 7,-20 19,-41 31,-57 20,-25 43,-44 72,-59 19,-10 43,-19 67,-22 53,-7 105,6 142,30 14,8 26,18 37,29 4,4 7,7 11,11 5,5 42,43 44,44 13,-14 30,-30 44,-44 18,-18 24,-25 47,-40 69,-44 167,-43 235,7 5,3 9,6 13,10 4,3 8,6 12,10l10 11c20,24 29,36 42,68 4,11 6,22 10,34 0,7 2,15 3,22 0,9 1,17 0,25 0,16 -2,31 -6,45 -6,27 -17,47 -30,68 -6,9 -10,12 -14,18 -7,9 -20,22 -28,28 -6,4 -79,78 -86,85 -6,7 -12,13 -18,19 -7,6 -13,12 -20,19 -14,14 -49,49 -70,70 -11,12 -10,9 11,9l14 0 204 0 47 -68 27 53 26 2c6,8 11,20 23,31 4,-11 12,-59 16,-69 2,-15 17,-108 20,-133 4,-28 16,-131 23,-157 7,94 12,197 17,291l16 247c1,15 -2,25 8,32 13,-22 29,-237 40,-290l36 30c75,1 2161,11 2232,2 -76,-16 -2154,-2 -2227,-13l-48 -41 -31 231c-7,-8 -12,-132 -13,-142 -3,-50 -5,-99 -9,-148l-12 -225c-1,-12 -1,-59 -6,-73 -7,29 -59,368 -68,431l-11 -13 -24 -1 -35 -61c-7,10 -48,71 -53,76 -2,2 -196,1 -209,1z"/>
 </g>
</svg>
