<?xml version="1.0" encoding="UTF-8"?>
<!DOCTYPE svg PUBLIC "-//W3C//DTD SVG 1.1//EN" "http://www.w3.org/Graphics/SVG/1.1/DTD/svg11.dtd">
<!-- Creator: CorelDRAW Home & Student X8 -->
<svg xmlns="http://www.w3.org/2000/svg" xml:space="preserve" width="2480px" height="3508px" version="1.1" style="shape-rendering:geometricPrecision; text-rendering:geometricPrecision; image-rendering:optimizeQuality; fill-rule:evenodd; clip-rule:evenodd"
viewBox="0 0 2480 3507"
 xmlns:xlink="http://www.w3.org/1999/xlink">
 <defs>
  <style type="text/css">
   <![CDATA[
    .fil0 {fill:black}
   ]]>
  </style>
 </defs>
 <g id="Warstwa_x0020_1">
  <metadata id="CorelCorpID_0Corel-Layer"/>
  <path class="fil0" d="M-285 2360c0,0 38,-34 44,-44 37,-34 141,-137 191,-187 131,-132 349,-350 356,-357 25,-18 40,-37 56,-50l50 -56c16,-22 28,-40 44,-65l37 -66c16,-53 25,-56 44,-128 56,-222 3,-450 -141,-622l-25 -28c-50,-56 -115,-106 -196,-147 -207,-106 -475,-103 -682,25 -15,9 -31,22 -50,34 -9,7 -15,10 -25,19 -40,35 -112,106 -153,147 -12,16 -31,28 -43,44 -7,-3 -132,-131 -157,-156 -72,-63 -137,-110 -231,-144 -37,-13 -153,-47 -187,-44 -54,-9 -147,0 -200,13 -144,31 -250,87 -350,184l-41 41c-3,6 -6,9 -12,15 -29,35 -60,81 -85,128 -122,247 -90,535 72,747 16,25 31,38 47,56 9,10 19,19 28,28 9,7 19,16 28,25 6,4 13,10 16,13 19,16 293,294 431,431 144,144 184,138 -16,138 -6,0 -8720,-13 -8727,6 110,22 8759,25 8840,25 144,0 137,16 -38,-163 -62,-59 -137,-134 -147,-146l-178 -175c-9,-10 -18,-19 -28,-29 -15,-18 -103,-109 -115,-118 -13,-10 -22,-16 -35,-28 -28,-25 -31,-32 -50,-50l-6 -10c-6,-6 -6,-6 -12,-12 -41,-50 -79,-110 -100,-172 -7,-13 -10,-25 -16,-38 -3,-9 -6,-31 -9,-37 -7,-22 -13,-44 -16,-66 -9,-72 -9,-140 0,-209 0,-6 0,-13 3,-16 0,-18 22,-90 28,-109 22,-63 60,-128 97,-178 63,-78 134,-138 225,-185 59,-31 134,-59 209,-68 166,-22 328,18 444,93 44,25 81,57 116,91 12,13 22,22 34,34 16,16 131,135 138,138 40,-44 93,-94 137,-138 56,-56 75,-78 147,-125 215,-137 522,-134 734,22 16,10 28,19 41,32 12,9 25,18 37,31l31 34c63,75 91,113 132,213 12,34 18,68 31,106 0,22 6,47 9,69 0,28 3,53 0,78 0,50 -6,97 -18,140 -19,85 -54,147 -94,213 -19,28 -31,37 -44,56 -22,28 -62,69 -87,88 -19,12 -247,243 -269,265 -19,22 -38,41 -56,60 -22,18 -41,37 -63,59 -44,44 -153,153 -219,219 -34,37 -31,28 35,28l44 0 637 0 147 -213 84 166 81 6c19,25 35,63 72,97 13,-34 38,-184 50,-216 7,-46 53,-337 63,-415 12,-88 50,-409 72,-491 22,294 37,616 53,910l50 771c3,47 -6,78 25,100 40,-68 90,-740 125,-906l112 94c235,3 6753,34 6974,6 -237,-50 -6730,-6 -6958,-40l-150 -129 -97 722c-22,-25 -37,-412 -41,-443 -9,-157 -15,-310 -28,-463l-37 -703c-3,-37 -3,-184 -19,-228 -22,91 -184,1150 -212,1347l-35 -41 -75 -3 -109 -191c-22,32 -150,222 -166,238 -6,6 -612,3 -653,3l0 0z"/>
 </g>
</svg>
