<?xml version="1.0" encoding="UTF-8"?>
<!DOCTYPE svg PUBLIC "-//W3C//DTD SVG 1.1//EN" "http://www.w3.org/Graphics/SVG/1.1/DTD/svg11.dtd">
<!-- Creator: CorelDRAW Home & Student X8 -->
<svg xmlns="http://www.w3.org/2000/svg" xml:space="preserve" width="5000px" height="5000px" version="1.1" style="shape-rendering:geometricPrecision; text-rendering:geometricPrecision; image-rendering:optimizeQuality; fill-rule:evenodd; clip-rule:evenodd"
viewBox="0 0 5000 5000"
 xmlns:xlink="http://www.w3.org/1999/xlink">
 <defs>
  <style type="text/css">
   <![CDATA[
    .str1 {stroke:#000000;stroke-width:49.9996}
    .str2 {stroke:#000000;stroke-width:24.9992}
    .str0 {stroke:#000000;stroke-width:2.36221}
    .fil3 {fill:none}
    .fil1 {fill:#FEFEFE}
    .fil2 {fill:#000000}
    .fil0 {fill:#000000}
   ]]>
  </style>
 </defs>
 <g id="Warstwa_x0020_2">
  <metadata id="CorelCorpID_0Corel-Layer"/>
  <g id="_745726528">
   <g>
    <path class="fil0" d="M3302 3136c-38,-273 428,-375 449,-33 10,148 -62,228 -206,249 -110,16 -225,-88 -243,-216zm-2315 0c-16,-117 71,-231 205,-248 147,-18 236,82 244,215 9,148 -62,228 -206,249 -111,16 -225,-88 -243,-216zm879 -653l-2 -612 620 10 1 1176c-31,7 -520,-3 -591,-5 -34,-1 -25,-6 -25,-43l-3 -526zm-1152 555c-42,-13 -53,-23 -58,-71 -17,-160 -14,-435 -16,-601 -2,-162 -7,-324 -11,-487 -1,-78 -9,-167 -5,-244 5,-92 16,-130 99,-148 62,-13 405,1 490,4l1436 45c9,114 1,254 25,361 56,257 232,298 461,314 214,15 198,-17 322,-62 36,18 64,45 105,57 147,42 648,118 763,173 40,19 60,35 74,81 19,59 15,225 17,300 3,100 -7,185 -58,253 -47,63 -168,48 -264,50 -81,1 -233,8 -305,-2l-10 -26c-59,-228 -366,-249 -482,-48 -15,27 -22,61 -34,83 -37,1 -719,-3 -734,-10 -15,-8 -6,-90 -6,-112 0,-128 7,-1085 -6,-1099 -10,-10 -673,-22 -685,-11 -13,13 -1,1103 -1,1213l-362 -5c-13,-26 -17,-52 -35,-81 -118,-191 -427,-132 -478,85 -71,0 -179,7 -242,-12zm2666 -955c21,19 28,20 40,43 -47,18 -72,39 -135,47 -123,15 -359,-8 -448,-73 -158,-115 -141,-323 -150,-560 186,4 382,198 492,334l201 209zm408 1017c87,0 174,2 261,1 70,-1 181,3 244,-9 151,-29 163,-224 160,-349 -2,-75 3,-180 -8,-250 -13,-82 -46,-120 -106,-150 -68,-33 -321,-82 -410,-100 -123,-24 -316,-47 -413,-102 -30,-18 -50,-30 -75,-52 -27,-25 -44,-38 -68,-60 -110,-104 -267,-308 -372,-392 -104,-83 -230,-136 -369,-139 -332,-7 -666,-18 -998,-31 -170,-7 -585,-25 -747,-19 -100,3 -316,-56 -302,215 13,228 14,518 18,748 3,162 -2,340 11,499 8,94 8,139 91,164 66,20 167,14 242,14 11,105 19,148 74,213 18,21 52,45 81,62 69,42 156,31 228,1 117,-50 146,-151 142,-281l1791 25c9,163 134,289 266,284 172,-8 263,-117 259,-292z"/>
    <path class="fil0" d="M856 1910c171,-1 1,0 172,-1 -1,-194 0,0 -1,-194 175,2 0,0 175,2 9,187 0,0 8,190l192 -2 0 126 -197 -1 0 0 -1 187 -176 -3c-3,-49 3,0 -3,-177 -167,-1 0,0 -170,-1l1 -126zm-38 160l171 1c0,49 -1,93 -1,179 31,6 217,4 253,4 3,-187 0,0 2,-187l195 3 0 0c-3,-204 0,0 -3,-204 -191,0 0,0 -191,0 -2,-62 0,0 -5,-185 -250,1 0,0 -250,1 2,59 4,135 -1,187 -167,4 0,0 -173,2 -1,200 2,184 3,199l0 0z"/>
   </g>
  </g>
 </g>
 <g id="Warstwa_x0020_4">
  <metadata id="CorelCorpID_1Corel-Layer"/>
  <g id="_582670576">
   <g>
    <path class="fil0" d="M3739 4148l-46 0 4 165 50 -1 -8 -164zm-1358 -38l1 199 771 -1 0 -193 -772 -5zm1661 -407l-655 0 0 421 659 0 0 -19 0 -10 0 -10 -4 -382zm-585 444c-11,43 -79,99 -139,66 -51,-27 -57,-88 -142,-87 -4,50 7,164 -3,202 -19,6 -790,8 -811,2 -5,-12 -9,-232 -1,-240 8,-8 542,0 627,1 35,0 71,0 106,1 74,0 78,-8 83,19 79,1 94,50 134,82 56,46 125,-9 130,-45l-76 -3c-7,-35 -1,-183 -1,-231 0,-35 -7,-214 4,-230 14,-10 142,-4 171,-4 66,0 498,-3 524,1 9,23 5,287 5,349l2 103c-1,19 3,-15 -1,6l-3 5c-16,9 -260,3 -301,3 -3,15 3,153 6,163 8,9 128,-2 149,6 6,2 8,15 1,18l-9 3c-3,0 -11,0 -14,0 -79,-1 -375,3 -402,-4 -5,-23 7,-21 29,-21l147 1 -4 -166 -211 0z"/>
    <path class="fil0" d="M3585 4007c-12,45 21,72 37,51 5,-6 7,-36 4,-45 -3,-10 -29,-6 -41,-6zm-15 -27c24,-7 109,-3 140,-3 33,1 108,-6 130,9l0 14 -10 8 -177 0c0,22 2,51 -11,67 -11,14 -32,19 -53,10 -51,-22 -30,-99 -19,-105z"/>
    <path class="fil0" d="M3523 3835c-18,-28 -81,-64 -54,-80 15,-9 66,48 76,59 22,-9 50,-55 73,-57l9 7c3,25 -27,41 -57,70 12,24 54,41 53,70l-9 8c-11,3 -56,-45 -64,-54 -33,17 -49,62 -80,52 -6,-21 10,-30 22,-40 15,-15 26,-22 31,-35z"/>
    <path class="fil0" d="M3876 3835c-10,-15 -23,-25 -37,-37 -5,-6 -39,-31 -17,-43 14,-8 35,19 41,26 12,11 24,21 35,33 22,-9 50,-55 72,-57l9 7c3,23 -11,28 -24,39 -11,11 -22,21 -33,31 12,24 54,41 54,70 -17,14 -19,8 -45,-17 -10,-10 -20,-18 -28,-29 -34,17 -49,62 -80,52 -7,-21 10,-30 21,-40l26 -25c8,-9 2,0 6,-10z"/>
    <path class="fil0" d="M2573 4220c1,-9 3,-2 -2,-12 0,-1 -4,-7 -4,-7 -5,-5 -1,-1 -7,-5l-11 11c1,2 5,13 15,15 19,2 0,1 9,-2zm-49 -53c-9,-14 -16,-15 -33,-14 0,12 0,12 6,19 8,8 7,6 18,10 7,-9 5,-4 9,-15zm47 -15c-26,1 -71,55 -68,72 24,2 67,-54 68,-72zm-69 38c-11,-10 -26,-18 -23,-40 21,-23 39,-2 57,6 10,-9 19,-17 38,-16 20,20 6,27 -4,44 8,16 24,32 7,50 -23,3 -24,-6 -37,-15 -11,9 -19,19 -40,18 -22,-22 -6,-27 2,-47z"/>
   </g>
  </g>
 </g>
 <g id="Warstwa_x0020_1">
  <metadata id="CorelCorpID_2Corel-Layer"/>
  <g id="_743953608">
   <path class="fil1 str0" d="M1799 2552c0,0 -188,24 -198,198 -10,174 7,433 20,466 13,33 78,195 342,197 264,2 562,-2 631,-139 69,-136 73,-259 40,-555 -34,-295 -754,-170 -835,-167z"/>
   <g>
    <g>
     <path class="fil2" d="M1880 3988c-38,-43 -21,-138 -18,-202 34,-11 71,-19 110,-25 142,-23 303,-18 438,6 2,58 10,155 -11,204 -15,36 -34,31 -72,21 -89,-25 -172,-65 -274,-50 -61,9 -132,55 -173,46zm-153 -374c0,-38 13,-58 32,-80 21,13 21,15 37,34 15,17 24,24 32,43 -41,80 -96,8 -101,3zm726 -39c12,-28 50,-60 80,-74 13,27 20,68 -4,89 -30,10 -56,0 -76,-15zm-588 -160c71,-4 149,13 301,4 51,-3 102,-9 153,-11 52,-2 90,-14 136,-18 10,16 21,29 32,46 20,34 18,20 29,51 -32,17 -52,41 -73,64l-15 -14c-13,-18 -17,-54 -28,-68 -28,18 -8,90 -4,124 6,49 10,102 12,153 -92,-5 -193,-12 -284,-9 -98,2 -170,17 -259,28 2,-42 28,-221 15,-242 -22,13 -6,30 -28,53 -11,12 -7,6 -17,12l-59 -70c-1,-3 -4,-5 -5,-6 22,-47 61,-62 94,-97zm-259 -422c-4,-135 -5,-286 70,-371 40,-45 82,-50 156,-58 66,-6 158,-6 225,-11 35,-1 235,-1 368,8 157,22 191,65 194,235 -11,11 -7,9 -22,17 -62,32 -88,56 -123,133 -31,-68 9,-169 9,-200 -36,0 -61,10 -110,6 -137,-12 -144,-21 -295,32 4,-6 4,-6 9,-12 4,-4 14,-15 15,-19 2,-5 0,-12 -3,-16 -4,-5 -9,-8 -16,-8 -8,0 -20,2 -27,4 -11,3 -22,5 -33,9 -15,4 -30,8 -45,14 -8,3 -17,7 -25,12 -10,6 -18,14 -27,20 -4,3 -5,1 -4,-4 1,-13 11,-33 17,-46 1,-3 3,-6 4,-9 5,-7 0,-8 -6,-11 -14,-6 -19,-7 -33,-2 -5,2 -9,4 -13,5 -69,30 -86,39 -142,90 -46,37 -77,82 -110,127 -25,37 -16,32 -33,55zm1018 -164c12,219 77,362 -107,506 -95,75 -581,93 -735,39 -28,-13 -48,-20 -76,-49 -67,-85 -71,-119 -89,-241 -15,-93 36,-144 96,-218 36,-44 110,-115 199,-128 -6,20 -26,47 -25,64 5,60 69,-43 184,-52 -14,21 -14,20 -29,43 -11,17 -17,27 -15,50 21,-2 22,-10 42,-23 132,-85 259,-40 382,-42 -10,61 -13,119 -3,180 5,26 7,29 29,34 26,-20 18,-48 57,-96 20,-26 48,-55 90,-67zm-152 552c52,-20 97,-58 122,-91 24,-25 22,-30 43,-61 50,-67 25,-335 12,-460 -16,-147 -41,-207 -180,-233 -151,-27 -640,-40 -766,27 -87,46 -121,155 -125,287 -5,160 7,381 122,497 17,16 36,27 66,37 38,13 62,14 80,29 -45,34 -122,108 -135,169 -11,50 52,123 118,57 17,-17 13,-24 33,-42 -5,93 -39,297 -14,375 32,104 126,-41 306,-9 150,27 250,120 274,-22 19,-113 -8,-269 -14,-382l21 21c6,6 9,10 15,14 32,24 114,44 113,-50 0,-43 -58,-113 -91,-163z"/>
     <path class="fil2" d="M2085 3554c-48,9 -87,-5 -112,8 -8,5 -16,11 -16,22 0,9 9,17 14,19 27,14 67,2 114,10 0,35 -13,109 27,109 41,1 27,-74 27,-112 43,0 77,6 106,-11 6,-5 9,-9 8,-16 0,-5 -1,-10 -7,-15 -28,-16 -69,-11 -107,-11 0,-25 5,-99 -9,-111 -13,-12 -31,-9 -39,4 -11,16 -6,82 -6,104z"/>
     <path class="fil2" d="M2337 3100c-11,-20 -20,-97 31,-98l-13 79c-11,28 -4,13 -18,19zm-26 3c-27,-15 -38,-38 -40,-82 -2,-32 3,-82 17,-110 46,2 76,21 83,61 -9,7 3,0 -11,5 -2,1 -4,1 -5,2 -51,16 -52,80 -44,124zm-80 -204c4,9 1,5 8,11 1,1 2,2 3,3 1,0 3,1 4,2l7 6c1,1 3,2 4,3 -37,60 -12,169 31,200 83,60 98,-46 113,-113 7,19 12,39 32,44 14,-22 -1,-53 -12,-76 -12,-23 -24,-48 -42,-62 -30,-23 -107,-64 -148,-18z"/>
     <path class="fil2" d="M1880 3087c-7,-10 -30,-76 28,-87 0,20 1,36 -4,57 -6,25 -7,25 -24,30zm-28 5c-26,-9 -31,-17 -37,-49 -9,-52 -13,-100 26,-117 15,-6 34,-13 55,-11l10 57c-22,14 -37,17 -48,39 -12,24 -9,52 -6,81zm-117 -30c32,-5 14,-20 46,-70 6,36 4,72 23,99 14,22 49,46 89,27 45,-21 61,-138 31,-199l12 -8c1,0 3,-1 5,-1 9,-4 1,3 16,-7 -11,-53 -133,1 -155,15 -26,15 -81,107 -67,144z"/>
     <path class="fil2" d="M2118 3284c-8,-34 -24,-23 -57,-22 -21,0 -56,-14 -62,11 -5,23 -1,1 48,6 19,2 20,-1 35,-2 15,0 21,5 36,7z"/>
    </g>
    <g>
     <rect class="fil1 str1" x="2347" y="3601" width="435" height="324"/>
     <polygon class="fil3 str2" points="2505,3747 2505,3783 2546,3783 2546,3820 2585,3820 2585,3783 2624,3783 2624,3747 2585,3747 2585,3706 2546,3706 2546,3747 "/>
    </g>
   </g>
  </g>
 </g>
</svg>
