<?xml version="1.0" encoding="UTF-8"?>
<!DOCTYPE svg PUBLIC "-//W3C//DTD SVG 1.1//EN" "http://www.w3.org/Graphics/SVG/1.1/DTD/svg11.dtd">
<!-- Creator: CorelDRAW Home & Student X8 -->
<svg xmlns="http://www.w3.org/2000/svg" xml:space="preserve" width="2000px" height="2000px" version="1.1" style="shape-rendering:geometricPrecision; text-rendering:geometricPrecision; image-rendering:optimizeQuality; fill-rule:evenodd; clip-rule:evenodd"
viewBox="0 0 200000000 200000000"
 xmlns:xlink="http://www.w3.org/1999/xlink">
 <defs>
  <style type="text/css">
   <![CDATA[
    .fil0 {fill:#080808}
   ]]>
  </style>
 </defs>
 <g id="Warstwa_x0020_1">
  <metadata id="CorelCorpID_0Corel-Layer"/>
  <path class="fil0" d="M36530226 51488072c-1919293,-1534371 -39331,-1222206 -3214964,-1510513l-1738702 -2682758c-1484292,670867 -1359331,1499293 -2155749,2719845 -3739728,98622 -17451510,-440198 -19860843,372402 3693192,1022481 15607217,346890 20261945,448583l1362521 -2408979 1491970 2245041c1017520,217560 1635473,-71102 2394568,465473 798899,565040 591733,1032166 1504136,1659923 3178821,-3791814 3160632,-16998793 4747917,-24244389 776929,7362407 1041969,16005012 1401733,23487656 158622,3303192 1011024,21731592 1625907,23448207 830552,-210472 539528,1037600 924568,-2808073 693071,-6919257 1741418,-19296393 2633978,-25001476l1825986 2954884 41401213 1772c-306850,-397441 -3790869,-3199137 -4473546,-3761224 -4073390,-3354333 -9657292,-9757921 -10223749,-15115523 -520039,-4917760 1757010,-8857803 6638037,-9901071 2420081,-517323 5164847,-411260 7405518,662126 3132049,1500002 2443348,2941420 3738900,4908902 1681655,-5232878 5581540,-6720832 10915166,-5583194 4918114,1048702 7317290,5050398 6701699,10031819 -1101261,8908944 -12769499,16508045 -14741705,18893519l41338497 64370 1297678 -2465671 1504017 2361262 2165907 114449c894450,942993 735237,1400670 1883624,1881615 1422166,-2210316 1497285,-2310946 1878899,-4999492 282520,-1992757 567520,-3985160 834922,-5979689 305788,-2285081 1073623,-10963946 1927088,-12264577 524646,7707998 961773,15504107 1390159,23227577l1284568 20281788c69685,1221851 -178819,2041655 674173,2596301 1047757,-1778269 2365278,-23600806 3212956,-27989786l1839804 3052680c6149415,92244 14949815,371103 20736158,-373583 -6228194,-1261536 -14298200,354331 -20333992,-512245l-2658191 -4787956 -2650868 23996475c-605198,-722717 -978663,-10850559 -1037009,-11706977 -274134,-4031578 -488977,-8070361 -747993,-12103592l-1027796 -18417417c-70394,-1641851 363662,-4883389 -491103,-5998823 -1196575,1508859 -2348387,27554313 -5137917,30728882l-1099961 -1376103 -1995475 -98032 -1701379 -2675789c-1315513,351260 -1615867,1515592 -2184332,2663388l-38595149 42401c842363,-1288938 13197885,-9931070 13295562,-19280566 94606,-9042291 -8114062,-11192253 -13930995,-9439968 -3024333,910985 -2897365,1625907 -4633114,3590672 -1377167,-1594253 -1926143,-2718782 -4278193,-3469491 -12580285,-4015751 -21861040,9729693 -5439453,24546161 1279490,1154529 3163822,2543034 4333823,3826184l-38630818 52559c-649016,-1186182 -1848899,-4302405 -2766380,-4741657 -364371,3691893 -1897443,22500608 -2695632,24466082l-2894884 -48755589c-971694,434528 -649371,2056064 -804332,3409609l-2616734 19889779c-362363,2610829 -347245,5200280 -1812639,7361817z"/>
 </g>
</svg>
